<?xml version="1.0" encoding="UTF-8" standalone="no"?>
<!DOCTYPE svg PUBLIC "-//W3C//DTD SVG 1.1//EN"
 "http://www.w3.org/Graphics/SVG/1.1/DTD/svg11.dtd">
<!-- Generated by graphviz version 2.43.0 (0)
 -->
<!-- Title: sourcetree Pages: 1 -->
<svg width="2938pt" height="188pt"
 viewBox="0.00 0.00 2938.00 188.00" xmlns="http://www.w3.org/2000/svg" xmlns:xlink="http://www.w3.org/1999/xlink">
<g id="graph0" class="graph" transform="scale(1 1) rotate(0) translate(4 184)">
<title>sourcetree</title>
<polygon fill="white" stroke="transparent" points="-4,4 -4,-184 2934,-184 2934,4 -4,4"/>
<!-- MulleHoedown -->
<g id="node1" class="node">
<title>MulleHoedown</title>
<polygon fill="yellow" stroke="black" points="1461,-180 1337,-180 1337,-144 1461,-144 1461,-180"/>
<text text-anchor="middle" x="1399" y="-158.3" font-family="Times,serif" font-size="14.00">MulleHoedown</text>
</g>
<!-- MulleFoundationBase -->
<g id="node2" class="node">
<title>MulleFoundationBase</title>
<g id="a_node2"><a xlink:href="https://github.com/MulleFoundation/MulleFoundationBase" xlink:title="MulleFoundationBase">
<polygon fill="lightgrey" stroke="black" points="1485,-108 1313,-108 1313,-72 1485,-72 1485,-108"/>
<text text-anchor="middle" x="1399" y="-86.3" font-family="Times,serif" font-size="14.00">MulleFoundationBase</text>
</a>
</g>
</g>
<!-- MulleHoedown&#45;&gt;MulleFoundationBase -->
<g id="edge14" class="edge">
<title>MulleHoedown&#45;&gt;MulleFoundationBase</title>
<path fill="none" stroke="black" d="M1399,-143.7C1399,-135.98 1399,-126.71 1399,-118.11"/>
<polygon fill="black" stroke="black" points="1402.5,-118.1 1399,-108.1 1395.5,-118.1 1402.5,-118.1"/>
</g>
<!-- MulleObjC -->
<g id="node3" class="node">
<title>MulleObjC</title>
<g id="a_node3"><a xlink:href="https://github.com/mulle-objc/MulleObjC" xlink:title="MulleObjC">
<polygon fill="lightgrey" stroke="black" points="92,-36 0,-36 0,0 92,0 92,-36"/>
<text text-anchor="middle" x="46" y="-14.3" font-family="Times,serif" font-size="14.00">MulleObjC</text>
</a>
</g>
</g>
<!-- MulleFoundationBase&#45;&gt;MulleObjC -->
<g id="edge1" class="edge">
<title>MulleFoundationBase&#45;&gt;MulleObjC</title>
<path fill="none" stroke="black" d="M1312.74,-88.38C1065.2,-86.17 354.73,-76.5 102.24,-35.87"/>
<polygon fill="black" stroke="black" points="102.44,-32.36 92,-34.17 101.29,-39.26 102.44,-32.36"/>
</g>
<!-- MulleObjCArchiverFoundation -->
<g id="node4" class="node">
<title>MulleObjCArchiverFoundation</title>
<g id="a_node4"><a xlink:href="https://github.com/MulleFoundation/MulleObjCArchiverFoundation@*" xlink:title="MulleObjCArchiverFoundation">
<polygon fill="lightgrey" stroke="black" points="343.5,-36 110.5,-36 110.5,0 343.5,0 343.5,-36"/>
<text text-anchor="middle" x="227" y="-14.3" font-family="Times,serif" font-size="14.00">MulleObjCArchiverFoundation</text>
</a>
</g>
</g>
<!-- MulleFoundationBase&#45;&gt;MulleObjCArchiverFoundation -->
<g id="edge2" class="edge">
<title>MulleFoundationBase&#45;&gt;MulleObjCArchiverFoundation</title>
<path fill="none" stroke="black" d="M1312.98,-87.11C1135.52,-82.67 715.75,-69.4 353.89,-36.13"/>
<polygon fill="black" stroke="black" points="354.02,-32.63 343.74,-35.19 353.37,-39.6 354.02,-32.63"/>
</g>
<!-- MulleObjCContainerFoundation -->
<g id="node5" class="node">
<title>MulleObjCContainerFoundation</title>
<g id="a_node5"><a xlink:href="https://github.com/MulleFoundation/MulleObjCContainerFoundation@*" xlink:title="MulleObjCContainerFoundation">
<polygon fill="lightgrey" stroke="black" points="604.5,-36 361.5,-36 361.5,0 604.5,0 604.5,-36"/>
<text text-anchor="middle" x="483" y="-14.3" font-family="Times,serif" font-size="14.00">MulleObjCContainerFoundation</text>
</a>
</g>
</g>
<!-- MulleFoundationBase&#45;&gt;MulleObjCContainerFoundation -->
<g id="edge3" class="edge">
<title>MulleFoundationBase&#45;&gt;MulleObjCContainerFoundation</title>
<path fill="none" stroke="black" d="M1312.79,-84.96C1169.82,-77.86 874.45,-61.55 614.76,-36.14"/>
<polygon fill="black" stroke="black" points="615.06,-32.65 604.76,-35.16 614.37,-39.62 615.06,-32.65"/>
</g>
<!-- MulleObjCKVCFoundation -->
<g id="node6" class="node">
<title>MulleObjCKVCFoundation</title>
<g id="a_node6"><a xlink:href="https://github.com/MulleFoundation/MulleObjCKVCFoundation@*" xlink:title="MulleObjCKVCFoundation">
<polygon fill="lightgrey" stroke="black" points="825.5,-36 622.5,-36 622.5,0 825.5,0 825.5,-36"/>
<text text-anchor="middle" x="724" y="-14.3" font-family="Times,serif" font-size="14.00">MulleObjCKVCFoundation</text>
</a>
</g>
</g>
<!-- MulleFoundationBase&#45;&gt;MulleObjCKVCFoundation -->
<g id="edge4" class="edge">
<title>MulleFoundationBase&#45;&gt;MulleObjCKVCFoundation</title>
<path fill="none" stroke="black" d="M1312.83,-82.47C1204.12,-73.88 1011.19,-57.47 835.53,-36.02"/>
<polygon fill="black" stroke="black" points="835.94,-32.55 825.59,-34.8 835.09,-39.49 835.94,-32.55"/>
</g>
<!-- MulleObjCLockFoundation -->
<g id="node7" class="node">
<title>MulleObjCLockFoundation</title>
<g id="a_node7"><a xlink:href="https://github.com/MulleFoundation/MulleObjCLockFoundation@*" xlink:title="MulleObjCLockFoundation">
<polygon fill="lightgrey" stroke="black" points="1050,-36 844,-36 844,0 1050,0 1050,-36"/>
<text text-anchor="middle" x="947" y="-14.3" font-family="Times,serif" font-size="14.00">MulleObjCLockFoundation</text>
</a>
</g>
</g>
<!-- MulleFoundationBase&#45;&gt;MulleObjCLockFoundation -->
<g id="edge5" class="edge">
<title>MulleFoundationBase&#45;&gt;MulleObjCLockFoundation</title>
<path fill="none" stroke="black" d="M1312.92,-75.67C1241.19,-64.56 1138.47,-48.65 1060.11,-36.52"/>
<polygon fill="black" stroke="black" points="1060.61,-33.05 1050.19,-34.98 1059.54,-39.97 1060.61,-33.05"/>
</g>
<!-- MulleObjCMathFoundation -->
<g id="node8" class="node">
<title>MulleObjCMathFoundation</title>
<g id="a_node8"><a xlink:href="https://github.com/MulleFoundation/MulleObjCMathFoundation@*" xlink:title="MulleObjCMathFoundation">
<polygon fill="lightgrey" stroke="black" points="1278,-36 1068,-36 1068,0 1278,0 1278,-36"/>
<text text-anchor="middle" x="1173" y="-14.3" font-family="Times,serif" font-size="14.00">MulleObjCMathFoundation</text>
</a>
</g>
</g>
<!-- MulleFoundationBase&#45;&gt;MulleObjCMathFoundation -->
<g id="edge6" class="edge">
<title>MulleFoundationBase&#45;&gt;MulleObjCMathFoundation</title>
<path fill="none" stroke="black" d="M1344,-71.97C1312.01,-62.06 1271.52,-49.51 1237.96,-39.12"/>
<polygon fill="black" stroke="black" points="1238.83,-35.73 1228.24,-36.11 1236.76,-42.41 1238.83,-35.73"/>
</g>
<!-- MulleObjCPlistFoundation -->
<g id="node9" class="node">
<title>MulleObjCPlistFoundation</title>
<g id="a_node9"><a xlink:href="https://github.com/MulleFoundation/MulleObjCPlistFoundation@*" xlink:title="MulleObjCPlistFoundation">
<polygon fill="lightgrey" stroke="black" points="1501.5,-36 1296.5,-36 1296.5,0 1501.5,0 1501.5,-36"/>
<text text-anchor="middle" x="1399" y="-14.3" font-family="Times,serif" font-size="14.00">MulleObjCPlistFoundation</text>
</a>
</g>
</g>
<!-- MulleFoundationBase&#45;&gt;MulleObjCPlistFoundation -->
<g id="edge7" class="edge">
<title>MulleFoundationBase&#45;&gt;MulleObjCPlistFoundation</title>
<path fill="none" stroke="black" d="M1399,-71.7C1399,-63.98 1399,-54.71 1399,-46.11"/>
<polygon fill="black" stroke="black" points="1402.5,-46.1 1399,-36.1 1395.5,-46.1 1402.5,-46.1"/>
</g>
<!-- MulleObjCRegexFoundation -->
<g id="node10" class="node">
<title>MulleObjCRegexFoundation</title>
<g id="a_node10"><a xlink:href="https://github.com/MulleFoundation/MulleObjCRegexFoundation" xlink:title="MulleObjCRegexFoundation">
<polygon fill="lightgrey" stroke="black" points="1736.5,-36 1519.5,-36 1519.5,0 1736.5,0 1736.5,-36"/>
<text text-anchor="middle" x="1628" y="-14.3" font-family="Times,serif" font-size="14.00">MulleObjCRegexFoundation</text>
</a>
</g>
</g>
<!-- MulleFoundationBase&#45;&gt;MulleObjCRegexFoundation -->
<g id="edge8" class="edge">
<title>MulleFoundationBase&#45;&gt;MulleObjCRegexFoundation</title>
<path fill="none" stroke="black" d="M1454.73,-71.97C1487.14,-62.06 1528.18,-49.51 1562.18,-39.12"/>
<polygon fill="black" stroke="black" points="1563.48,-42.38 1572.02,-36.11 1561.44,-35.69 1563.48,-42.38"/>
</g>
<!-- MulleObjCStandardFoundation -->
<g id="node11" class="node">
<title>MulleObjCStandardFoundation</title>
<g id="a_node11"><a xlink:href="https://github.com/MulleFoundation/MulleObjCStandardFoundation@*" xlink:title="MulleObjCStandardFoundation">
<polygon fill="lightgrey" stroke="black" points="1993.5,-36 1754.5,-36 1754.5,0 1993.5,0 1993.5,-36"/>
<text text-anchor="middle" x="1874" y="-14.3" font-family="Times,serif" font-size="14.00">MulleObjCStandardFoundation</text>
</a>
</g>
</g>
<!-- MulleFoundationBase&#45;&gt;MulleObjCStandardFoundation -->
<g id="edge9" class="edge">
<title>MulleFoundationBase&#45;&gt;MulleObjCStandardFoundation</title>
<path fill="none" stroke="black" d="M1485.02,-76.32C1558.49,-65.5 1665.17,-49.78 1748.23,-37.54"/>
<polygon fill="black" stroke="black" points="1748.85,-40.98 1758.23,-36.06 1747.83,-34.06 1748.85,-40.98"/>
</g>
<!-- MulleObjCTimeFoundation -->
<g id="node12" class="node">
<title>MulleObjCTimeFoundation</title>
<g id="a_node12"><a xlink:href="https://github.com/MulleFoundation/MulleObjCTimeFoundation@*" xlink:title="MulleObjCTimeFoundation">
<polygon fill="lightgrey" stroke="black" points="2220,-36 2012,-36 2012,0 2220,0 2220,-36"/>
<text text-anchor="middle" x="2116" y="-14.3" font-family="Times,serif" font-size="14.00">MulleObjCTimeFoundation</text>
</a>
</g>
</g>
<!-- MulleFoundationBase&#45;&gt;MulleObjCTimeFoundation -->
<g id="edge10" class="edge">
<title>MulleFoundationBase&#45;&gt;MulleObjCTimeFoundation</title>
<path fill="none" stroke="black" d="M1485.19,-83.12C1600.47,-74.88 1811.45,-58.48 2001.78,-36.1"/>
<polygon fill="black" stroke="black" points="2002.46,-39.55 2011.97,-34.9 2001.63,-32.6 2002.46,-39.55"/>
</g>
<!-- MulleObjCUnicodeFoundation -->
<g id="node13" class="node">
<title>MulleObjCUnicodeFoundation</title>
<g id="a_node13"><a xlink:href="https://github.com/MulleFoundation/MulleObjCUnicodeFoundation@*" xlink:title="MulleObjCUnicodeFoundation">
<polygon fill="lightgrey" stroke="black" points="2469.5,-36 2238.5,-36 2238.5,0 2469.5,0 2469.5,-36"/>
<text text-anchor="middle" x="2354" y="-14.3" font-family="Times,serif" font-size="14.00">MulleObjCUnicodeFoundation</text>
</a>
</g>
</g>
<!-- MulleFoundationBase&#45;&gt;MulleObjCUnicodeFoundation -->
<g id="edge11" class="edge">
<title>MulleFoundationBase&#45;&gt;MulleObjCUnicodeFoundation</title>
<path fill="none" stroke="black" d="M1485.2,-85.53C1634.33,-79.07 1950.33,-63.42 2227.98,-36.06"/>
<polygon fill="black" stroke="black" points="2228.65,-39.51 2238.26,-35.04 2227.96,-32.54 2228.65,-39.51"/>
</g>
<!-- MulleObjCUUIDFoundation -->
<g id="node14" class="node">
<title>MulleObjCUUIDFoundation</title>
<g id="a_node14"><a xlink:href="https://github.com/MulleFoundation/MulleObjCUUIDFoundation@*" xlink:title="MulleObjCUUIDFoundation">
<polygon fill="lightgrey" stroke="black" points="2700.5,-36 2487.5,-36 2487.5,0 2700.5,0 2700.5,-36"/>
<text text-anchor="middle" x="2594" y="-14.3" font-family="Times,serif" font-size="14.00">MulleObjCUUIDFoundation</text>
</a>
</g>
</g>
<!-- MulleFoundationBase&#45;&gt;MulleObjCUUIDFoundation -->
<g id="edge12" class="edge">
<title>MulleFoundationBase&#45;&gt;MulleObjCUUIDFoundation</title>
<path fill="none" stroke="black" d="M1485.31,-87.63C1667.02,-84.11 2102.52,-72.41 2477,-36.14"/>
<polygon fill="black" stroke="black" points="2477.61,-39.6 2487.23,-35.15 2476.93,-32.63 2477.61,-39.6"/>
</g>
<!-- MulleObjCValueFoundation -->
<g id="node15" class="node">
<title>MulleObjCValueFoundation</title>
<g id="a_node15"><a xlink:href="https://github.com/MulleFoundation/MulleObjCValueFoundation@*" xlink:title="MulleObjCValueFoundation">
<polygon fill="lightgrey" stroke="black" points="2930,-36 2718,-36 2718,0 2930,0 2930,-36"/>
<text text-anchor="middle" x="2824" y="-14.3" font-family="Times,serif" font-size="14.00">MulleObjCValueFoundation</text>
</a>
</g>
</g>
<!-- MulleFoundationBase&#45;&gt;MulleObjCValueFoundation -->
<g id="edge13" class="edge">
<title>MulleFoundationBase&#45;&gt;MulleObjCValueFoundation</title>
<path fill="none" stroke="black" d="M1485.11,-88.72C1693.54,-87.35 2241.8,-79.61 2707.89,-36.15"/>
<polygon fill="black" stroke="black" points="2708.22,-39.63 2717.85,-35.21 2707.57,-32.66 2708.22,-39.63"/>
</g>
</g>
</svg>
