<?xml version="1.0" encoding="UTF-8" standalone="no"?>
<!DOCTYPE svg PUBLIC "-//W3C//DTD SVG 1.1//EN"
 "http://www.w3.org/Graphics/SVG/1.1/DTD/svg11.dtd">
<!-- Generated by graphviz version 2.43.0 (0)
 -->
<!-- Title: sourcetree Pages: 1 -->
<svg width="356pt" height="188pt"
 viewBox="0.00 0.00 355.50 188.00" xmlns="http://www.w3.org/2000/svg" xmlns:xlink="http://www.w3.org/1999/xlink">
<g id="graph0" class="graph" transform="scale(1 1) rotate(0) translate(4 184)">
<title>sourcetree</title>
<polygon fill="white" stroke="transparent" points="-4,4 -4,-184 351.5,-184 351.5,4 -4,4"/>
<!-- MulleHoedown -->
<g id="node1" class="node">
<title>MulleHoedown</title>
<polygon fill="yellow" stroke="black" points="211.5,-180 87.5,-180 87.5,-144 211.5,-144 211.5,-180"/>
<text text-anchor="middle" x="149.5" y="-158.3" font-family="Times,serif" font-size="14.00">MulleHoedown</text>
</g>
<!-- mulle&#45;objc&#45;list -->
<g id="node2" class="node">
<title>mulle&#45;objc&#45;list</title>
<polygon fill="lightgrey" stroke="black" points="117,-108 0,-108 0,-72 117,-72 117,-108"/>
<text text-anchor="middle" x="58.5" y="-86.3" font-family="Times,serif" font-size="14.00">mulle&#45;objc&#45;list</text>
</g>
<!-- MulleHoedown&#45;&gt;mulle&#45;objc&#45;list -->
<g id="edge1" class="edge">
<title>MulleHoedown&#45;&gt;mulle&#45;objc&#45;list</title>
<path fill="none" stroke="black" d="M127.01,-143.7C115.54,-134.88 101.44,-124.03 89.02,-114.47"/>
<polygon fill="black" stroke="black" points="90.8,-111.43 80.74,-108.1 86.53,-116.98 90.8,-111.43"/>
</g>
<!-- MulleObjCValueFoundation -->
<g id="node3" class="node">
<title>MulleObjCValueFoundation</title>
<polygon fill="lightgrey" stroke="black" points="347.5,-108 135.5,-108 135.5,-72 347.5,-72 347.5,-108"/>
<text text-anchor="middle" x="241.5" y="-86.3" font-family="Times,serif" font-size="14.00">MulleObjCValueFoundation</text>
</g>
<!-- MulleHoedown&#45;&gt;MulleObjCValueFoundation -->
<g id="edge2" class="edge">
<title>MulleHoedown&#45;&gt;MulleObjCValueFoundation</title>
<path fill="none" stroke="black" d="M172.24,-143.7C183.94,-134.8 198.36,-123.82 211.01,-114.2"/>
<polygon fill="black" stroke="black" points="213.18,-116.94 219.02,-108.1 208.94,-111.37 213.18,-116.94"/>
</g>
<!-- MulleObjC -->
<g id="node4" class="node">
<title>MulleObjC</title>
<polygon fill="lightgrey" stroke="black" points="287.5,-36 195.5,-36 195.5,0 287.5,0 287.5,-36"/>
<text text-anchor="middle" x="241.5" y="-14.3" font-family="Times,serif" font-size="14.00">MulleObjC</text>
</g>
<!-- MulleObjCValueFoundation&#45;&gt;MulleObjC -->
<g id="edge3" class="edge">
<title>MulleObjCValueFoundation&#45;&gt;MulleObjC</title>
<path fill="none" stroke="black" d="M241.5,-71.7C241.5,-63.98 241.5,-54.71 241.5,-46.11"/>
<polygon fill="black" stroke="black" points="245,-46.1 241.5,-36.1 238,-46.1 245,-46.1"/>
</g>
</g>
</svg>
