<?xml version="1.0" encoding="UTF-8" standalone="no"?>
<!DOCTYPE svg PUBLIC "-//W3C//DTD SVG 1.1//EN"
 "http://www.w3.org/Graphics/SVG/1.1/DTD/svg11.dtd">
<!-- Generated by graphviz version 2.43.0 (0)
 -->
<!-- Title: sourcetree Pages: 1 -->
<svg width="2703pt" height="188pt"
 viewBox="0.00 0.00 2703.00 188.00" xmlns="http://www.w3.org/2000/svg" xmlns:xlink="http://www.w3.org/1999/xlink">
<g id="graph0" class="graph" transform="scale(1 1) rotate(0) translate(4 184)">
<title>sourcetree</title>
<polygon fill="white" stroke="transparent" points="-4,4 -4,-184 2699,-184 2699,4 -4,4"/>
<!-- MulleHoedown -->
<g id="node1" class="node">
<title>MulleHoedown</title>
<polygon fill="yellow" stroke="black" points="1348,-180 1224,-180 1224,-144 1348,-144 1348,-180"/>
<text text-anchor="middle" x="1286" y="-158.3" font-family="Times,serif" font-size="14.00">MulleHoedown</text>
</g>
<!-- MulleFoundationBase -->
<g id="node2" class="node">
<title>MulleFoundationBase</title>
<g id="a_node2"><a xlink:href="https://github.com/MulleFoundation/MulleFoundationBase" xlink:title="MulleFoundationBase">
<polygon fill="lightgrey" stroke="black" points="1372,-108 1200,-108 1200,-72 1372,-72 1372,-108"/>
<text text-anchor="middle" x="1286" y="-86.3" font-family="Times,serif" font-size="14.00">MulleFoundationBase</text>
</a>
</g>
</g>
<!-- MulleHoedown&#45;&gt;MulleFoundationBase -->
<g id="edge13" class="edge">
<title>MulleHoedown&#45;&gt;MulleFoundationBase</title>
<path fill="none" stroke="black" d="M1286,-143.7C1286,-135.98 1286,-126.71 1286,-118.11"/>
<polygon fill="black" stroke="black" points="1289.5,-118.1 1286,-108.1 1282.5,-118.1 1289.5,-118.1"/>
</g>
<!-- MulleObjC -->
<g id="node3" class="node">
<title>MulleObjC</title>
<g id="a_node3"><a xlink:href="https://github.com/mulle-objc/MulleObjC" xlink:title="MulleObjC">
<polygon fill="lightgrey" stroke="black" points="92,-36 0,-36 0,0 92,0 92,-36"/>
<text text-anchor="middle" x="46" y="-14.3" font-family="Times,serif" font-size="14.00">MulleObjC</text>
</a>
</g>
</g>
<!-- MulleFoundationBase&#45;&gt;MulleObjC -->
<g id="edge1" class="edge">
<title>MulleFoundationBase&#45;&gt;MulleObjC</title>
<path fill="none" stroke="black" d="M1199.75,-87.99C967.43,-84.83 331.26,-73.1 101.96,-35.83"/>
<polygon fill="black" stroke="black" points="102.45,-32.37 92,-34.15 101.28,-39.27 102.45,-32.37"/>
</g>
<!-- MulleObjCArchiverFoundation -->
<g id="node4" class="node">
<title>MulleObjCArchiverFoundation</title>
<g id="a_node4"><a xlink:href="https://github.com/MulleFoundation/MulleObjCArchiverFoundation" xlink:title="MulleObjCArchiverFoundation">
<polygon fill="lightgrey" stroke="black" points="343.5,-36 110.5,-36 110.5,0 343.5,0 343.5,-36"/>
<text text-anchor="middle" x="227" y="-14.3" font-family="Times,serif" font-size="14.00">MulleObjCArchiverFoundation</text>
</a>
</g>
</g>
<!-- MulleFoundationBase&#45;&gt;MulleObjCArchiverFoundation -->
<g id="edge2" class="edge">
<title>MulleFoundationBase&#45;&gt;MulleObjCArchiverFoundation</title>
<path fill="none" stroke="black" d="M1199.87,-86.37C1036.76,-80.9 671.37,-66.28 354.06,-36.16"/>
<polygon fill="black" stroke="black" points="354.03,-32.64 343.74,-35.17 353.36,-39.61 354.03,-32.64"/>
</g>
<!-- MulleObjCContainerFoundation -->
<g id="node5" class="node">
<title>MulleObjCContainerFoundation</title>
<g id="a_node5"><a xlink:href="https://github.com/MulleFoundation/MulleObjCContainerFoundation" xlink:title="MulleObjCContainerFoundation">
<polygon fill="lightgrey" stroke="black" points="604.5,-36 361.5,-36 361.5,0 604.5,0 604.5,-36"/>
<text text-anchor="middle" x="483" y="-14.3" font-family="Times,serif" font-size="14.00">MulleObjCContainerFoundation</text>
</a>
</g>
</g>
<!-- MulleFoundationBase&#45;&gt;MulleObjCContainerFoundation -->
<g id="edge3" class="edge">
<title>MulleFoundationBase&#45;&gt;MulleObjCContainerFoundation</title>
<path fill="none" stroke="black" d="M1199.82,-83.64C1073.61,-75.47 830.89,-58.55 614.71,-36.15"/>
<polygon fill="black" stroke="black" points="615.08,-32.67 604.77,-35.12 614.35,-39.63 615.08,-32.67"/>
</g>
<!-- MulleObjCKVCFoundation -->
<g id="node6" class="node">
<title>MulleObjCKVCFoundation</title>
<g id="a_node6"><a xlink:href="https://github.com/MulleFoundation/MulleObjCKVCFoundation" xlink:title="MulleObjCKVCFoundation">
<polygon fill="lightgrey" stroke="black" points="825.5,-36 622.5,-36 622.5,0 825.5,0 825.5,-36"/>
<text text-anchor="middle" x="724" y="-14.3" font-family="Times,serif" font-size="14.00">MulleObjCKVCFoundation</text>
</a>
</g>
</g>
<!-- MulleFoundationBase&#45;&gt;MulleObjCKVCFoundation -->
<g id="edge4" class="edge">
<title>MulleFoundationBase&#45;&gt;MulleObjCKVCFoundation</title>
<path fill="none" stroke="black" d="M1199.85,-79.78C1111.22,-70.09 968.91,-53.96 835.59,-36.05"/>
<polygon fill="black" stroke="black" points="835.98,-32.57 825.6,-34.71 835.05,-39.51 835.98,-32.57"/>
</g>
<!-- MulleObjCLockFoundation -->
<g id="node7" class="node">
<title>MulleObjCLockFoundation</title>
<g id="a_node7"><a xlink:href="https://github.com/MulleFoundation/MulleObjCLockFoundation" xlink:title="MulleObjCLockFoundation">
<polygon fill="lightgrey" stroke="black" points="1050,-36 844,-36 844,0 1050,0 1050,-36"/>
<text text-anchor="middle" x="947" y="-14.3" font-family="Times,serif" font-size="14.00">MulleObjCLockFoundation</text>
</a>
</g>
</g>
<!-- MulleFoundationBase&#45;&gt;MulleObjCLockFoundation -->
<g id="edge5" class="edge">
<title>MulleFoundationBase&#45;&gt;MulleObjCLockFoundation</title>
<path fill="none" stroke="black" d="M1203.5,-71.97C1153.99,-61.74 1090.88,-48.71 1039.65,-38.13"/>
<polygon fill="black" stroke="black" points="1040.07,-34.64 1029.57,-36.05 1038.66,-41.5 1040.07,-34.64"/>
</g>
<!-- MulleObjCMathFoundation -->
<g id="node8" class="node">
<title>MulleObjCMathFoundation</title>
<g id="a_node8"><a xlink:href="https://github.com/MulleFoundation/MulleObjCMathFoundation" xlink:title="MulleObjCMathFoundation">
<polygon fill="lightgrey" stroke="black" points="1278,-36 1068,-36 1068,0 1278,0 1278,-36"/>
<text text-anchor="middle" x="1173" y="-14.3" font-family="Times,serif" font-size="14.00">MulleObjCMathFoundation</text>
</a>
</g>
</g>
<!-- MulleFoundationBase&#45;&gt;MulleObjCMathFoundation -->
<g id="edge6" class="edge">
<title>MulleFoundationBase&#45;&gt;MulleObjCMathFoundation</title>
<path fill="none" stroke="black" d="M1258.36,-71.88C1243.58,-62.72 1225.21,-51.34 1209.3,-41.48"/>
<polygon fill="black" stroke="black" points="1211.09,-38.48 1200.75,-36.19 1207.41,-44.43 1211.09,-38.48"/>
</g>
<!-- MulleObjCPlistFoundation -->
<g id="node9" class="node">
<title>MulleObjCPlistFoundation</title>
<g id="a_node9"><a xlink:href="https://github.com/MulleFoundation/MulleObjCPlistFoundation" xlink:title="MulleObjCPlistFoundation">
<polygon fill="lightgrey" stroke="black" points="1501.5,-36 1296.5,-36 1296.5,0 1501.5,0 1501.5,-36"/>
<text text-anchor="middle" x="1399" y="-14.3" font-family="Times,serif" font-size="14.00">MulleObjCPlistFoundation</text>
</a>
</g>
</g>
<!-- MulleFoundationBase&#45;&gt;MulleObjCPlistFoundation -->
<g id="edge7" class="edge">
<title>MulleFoundationBase&#45;&gt;MulleObjCPlistFoundation</title>
<path fill="none" stroke="black" d="M1313.64,-71.88C1328.42,-62.72 1346.79,-51.34 1362.7,-41.48"/>
<polygon fill="black" stroke="black" points="1364.59,-44.43 1371.25,-36.19 1360.91,-38.48 1364.59,-44.43"/>
</g>
<!-- MulleObjCStandardFoundation -->
<g id="node10" class="node">
<title>MulleObjCStandardFoundation</title>
<g id="a_node10"><a xlink:href="https://github.com/MulleFoundation/MulleObjCStandardFoundation" xlink:title="MulleObjCStandardFoundation">
<polygon fill="lightgrey" stroke="black" points="1758.5,-36 1519.5,-36 1519.5,0 1758.5,0 1758.5,-36"/>
<text text-anchor="middle" x="1639" y="-14.3" font-family="Times,serif" font-size="14.00">MulleObjCStandardFoundation</text>
</a>
</g>
</g>
<!-- MulleFoundationBase&#45;&gt;MulleObjCStandardFoundation -->
<g id="edge8" class="edge">
<title>MulleFoundationBase&#45;&gt;MulleObjCStandardFoundation</title>
<path fill="none" stroke="black" d="M1371.9,-71.97C1423.68,-61.7 1489.73,-48.6 1543.19,-38"/>
<polygon fill="black" stroke="black" points="1543.89,-41.43 1553.02,-36.05 1542.53,-34.56 1543.89,-41.43"/>
</g>
<!-- MulleObjCTimeFoundation -->
<g id="node11" class="node">
<title>MulleObjCTimeFoundation</title>
<g id="a_node11"><a xlink:href="https://github.com/MulleFoundation/MulleObjCTimeFoundation" xlink:title="MulleObjCTimeFoundation">
<polygon fill="lightgrey" stroke="black" points="1985,-36 1777,-36 1777,0 1985,0 1985,-36"/>
<text text-anchor="middle" x="1881" y="-14.3" font-family="Times,serif" font-size="14.00">MulleObjCTimeFoundation</text>
</a>
</g>
</g>
<!-- MulleFoundationBase&#45;&gt;MulleObjCTimeFoundation -->
<g id="edge9" class="edge">
<title>MulleFoundationBase&#45;&gt;MulleObjCTimeFoundation</title>
<path fill="none" stroke="black" d="M1372.32,-80.55C1466.7,-71.08 1622.64,-54.74 1767.03,-36.1"/>
<polygon fill="black" stroke="black" points="1767.5,-39.57 1776.96,-34.81 1766.6,-32.63 1767.5,-39.57"/>
</g>
<!-- MulleObjCUnicodeFoundation -->
<g id="node12" class="node">
<title>MulleObjCUnicodeFoundation</title>
<g id="a_node12"><a xlink:href="https://github.com/MulleFoundation/MulleObjCUnicodeFoundation" xlink:title="MulleObjCUnicodeFoundation">
<polygon fill="lightgrey" stroke="black" points="2234.5,-36 2003.5,-36 2003.5,0 2234.5,0 2234.5,-36"/>
<text text-anchor="middle" x="2119" y="-14.3" font-family="Times,serif" font-size="14.00">MulleObjCUnicodeFoundation</text>
</a>
</g>
</g>
<!-- MulleFoundationBase&#45;&gt;MulleObjCUnicodeFoundation -->
<g id="edge10" class="edge">
<title>MulleFoundationBase&#45;&gt;MulleObjCUnicodeFoundation</title>
<path fill="none" stroke="black" d="M1372.25,-84.23C1503.77,-76.58 1762.56,-60.06 1993,-36.07"/>
<polygon fill="black" stroke="black" points="1993.67,-39.52 2003.26,-34.99 1992.94,-32.55 1993.67,-39.52"/>
</g>
<!-- MulleObjCUUIDFoundation -->
<g id="node13" class="node">
<title>MulleObjCUUIDFoundation</title>
<g id="a_node13"><a xlink:href="https://github.com/MulleFoundation/MulleObjCUUIDFoundation" xlink:title="MulleObjCUUIDFoundation">
<polygon fill="lightgrey" stroke="black" points="2465.5,-36 2252.5,-36 2252.5,0 2465.5,0 2465.5,-36"/>
<text text-anchor="middle" x="2359" y="-14.3" font-family="Times,serif" font-size="14.00">MulleObjCUUIDFoundation</text>
</a>
</g>
</g>
<!-- MulleFoundationBase&#45;&gt;MulleObjCUUIDFoundation -->
<g id="edge11" class="edge">
<title>MulleFoundationBase&#45;&gt;MulleObjCUUIDFoundation</title>
<path fill="none" stroke="black" d="M1372.08,-86.88C1538.37,-82.2 1915.49,-68.78 2242.09,-36.14"/>
<polygon fill="black" stroke="black" points="2242.62,-39.61 2252.22,-35.12 2241.92,-32.64 2242.62,-39.61"/>
</g>
<!-- MulleObjCValueFoundation -->
<g id="node14" class="node">
<title>MulleObjCValueFoundation</title>
<g id="a_node14"><a xlink:href="https://github.com/MulleFoundation/MulleObjCValueFoundation" xlink:title="MulleObjCValueFoundation">
<polygon fill="lightgrey" stroke="black" points="2695,-36 2483,-36 2483,0 2695,0 2695,-36"/>
<text text-anchor="middle" x="2589" y="-14.3" font-family="Times,serif" font-size="14.00">MulleObjCValueFoundation</text>
</a>
</g>
</g>
<!-- MulleFoundationBase&#45;&gt;MulleObjCValueFoundation -->
<g id="edge12" class="edge">
<title>MulleFoundationBase&#45;&gt;MulleObjCValueFoundation</title>
<path fill="none" stroke="black" d="M1372.01,-88.21C1566.51,-85.78 2055.19,-75.94 2472.69,-36.17"/>
<polygon fill="black" stroke="black" points="2473.23,-39.64 2482.85,-35.2 2472.56,-32.67 2473.23,-39.64"/>
</g>
</g>
</svg>
