<?xml version="1.0" encoding="UTF-8" standalone="no"?>
<!DOCTYPE svg PUBLIC "-//W3C//DTD SVG 1.1//EN"
 "http://www.w3.org/Graphics/SVG/1.1/DTD/svg11.dtd">
<!-- Generated by graphviz version 2.43.0 (0)
 -->
<!-- Title: sourcetree Pages: 1 -->
<svg width="220pt" height="188pt"
 viewBox="0.00 0.00 220.00 188.00" xmlns="http://www.w3.org/2000/svg" xmlns:xlink="http://www.w3.org/1999/xlink">
<g id="graph0" class="graph" transform="scale(1 1) rotate(0) translate(4 184)">
<title>sourcetree</title>
<polygon fill="white" stroke="transparent" points="-4,4 -4,-184 216,-184 216,4 -4,4"/>
<!-- MulleHoedown -->
<g id="node1" class="node">
<title>MulleHoedown</title>
<polygon fill="yellow" stroke="black" points="168,-180 44,-180 44,-144 168,-144 168,-180"/>
<text text-anchor="middle" x="106" y="-158.3" font-family="Times,serif" font-size="14.00">MulleHoedown</text>
</g>
<!-- MulleObjCValueFoundation -->
<g id="node2" class="node">
<title>MulleObjCValueFoundation</title>
<polygon fill="lightgrey" stroke="black" points="212,-108 0,-108 0,-72 212,-72 212,-108"/>
<text text-anchor="middle" x="106" y="-86.3" font-family="Times,serif" font-size="14.00">MulleObjCValueFoundation</text>
</g>
<!-- MulleHoedown&#45;&gt;MulleObjCValueFoundation -->
<g id="edge1" class="edge">
<title>MulleHoedown&#45;&gt;MulleObjCValueFoundation</title>
<path fill="none" stroke="black" d="M106,-143.7C106,-135.98 106,-126.71 106,-118.11"/>
<polygon fill="black" stroke="black" points="109.5,-118.1 106,-108.1 102.5,-118.1 109.5,-118.1"/>
</g>
<!-- MulleObjC -->
<g id="node3" class="node">
<title>MulleObjC</title>
<polygon fill="lightgrey" stroke="black" points="152,-36 60,-36 60,0 152,0 152,-36"/>
<text text-anchor="middle" x="106" y="-14.3" font-family="Times,serif" font-size="14.00">MulleObjC</text>
</g>
<!-- MulleObjCValueFoundation&#45;&gt;MulleObjC -->
<g id="edge2" class="edge">
<title>MulleObjCValueFoundation&#45;&gt;MulleObjC</title>
<path fill="none" stroke="black" d="M106,-71.7C106,-63.98 106,-54.71 106,-46.11"/>
<polygon fill="black" stroke="black" points="109.5,-46.1 106,-36.1 102.5,-46.1 109.5,-46.1"/>
</g>
</g>
</svg>
